<svg width="50" height="50" viewBox="0 0 50 50" fill="none" xmlns="http://www.w3.org/2000/svg">
<path d="M39.5834 12.5H22.9167L18.75 8.33334H8.33335C6.04169 8.33334 4.16669 10.2083 4.16669 12.5V37.5C4.16669 39.7917 6.04169 41.6667 8.33335 41.6667H40.625C42.3959 41.6667 43.75 40.3125 43.75 38.5417V16.6667C43.75 14.375 41.875 12.5 39.5834 12.5Z" fill="#FFA000"/>
<path d="M43.9583 18.75H15.9375C13.9583 18.75 12.1875 20.2083 11.875 22.1875L8.33331 41.6667H41.3541C43.3333 41.6667 45.1041 40.2083 45.4166 38.2292L48.0208 23.6458C48.5416 21.1458 46.5625 18.75 43.9583 18.75V18.75Z" fill="#FFCA28"/>
</svg>
