<?xml version="1.0" encoding="utf-8"?>
<!-- Generator: Adobe Illustrator 23.0.6, SVG Export Plug-In . SVG Version: 6.00 Build 0) -->
<svg fill="#163A5F" version="1.1" id="Layer_1" xmlns="http://www.w3.org/2000/svg" xmlns:xlink="http://www.w3.org/1999/xlink" x="0px" y="0px" viewBox="0 0 1080 1080" style="enable-background:new 0 0 1080 1080;" xml:space="preserve">
	<path d="M259.4,542.7c10.9,0,21.8-0.5,32.7,0.2c5.1,0.3,10.8,1.7,15,4.4c7.5,5,8.5,14.5,3.1,22.7c-4.1,6.3-8.9,12.3-13.4,18.3
		c-31.6,42.1-63,84.2-94.9,126c-4.6,6-10.7,11.3-17.2,15.1c-10.6,6.4-22,5.5-32.2-1.4c-5.1-3.5-10-7.8-13.8-12.8
		c-35.8-47.4-71.4-94.9-107-142.4c-9.1-12.2-5.8-25.2,7.4-28.9c3.2-0.9,6.5-1.2,9.8-1.3c19.4-0.1,38.8-0.1,58.3-0.1c3,0,6,0.1,9,0
		c3.9-0.1,6.2-2.3,6.5-6.2c0.6-8,1-16.1,1.6-24.1c5.7-79.3,30.9-151.7,77.9-216.1c53.1-72.7,121.9-124.1,207.7-152.2
		c45.2-14.8,91.5-22.8,139.1-21.4c96.1,2.7,181.9,33.7,256.7,94.5c4.4,3.6,8.8,7.2,13,11c11.3,10.3,13.1,25.2,4.4,37.6
		c-7.5,10.7-15.3,21.3-23.2,31.7c-10.3,13.5-29.2,13.9-43.2,2c-12.9-10.9-25.9-21.8-39.9-31.2c-37.4-25-78.9-39.8-123-47.7
		c-24.7-4.4-49.5-5.8-74.5-3.6c-77.8,6.7-146,35.2-202.5,90c-41.1,39.9-70.9,86.8-86.9,142.1c-7.5,26-11.6,52.6-13,79.6
		c-0.7,13.4,0.6,14.4,14.1,13.9C240.4,542.5,249.9,542.7,259.4,542.7C259.4,542.7,259.4,542.7,259.4,542.7z" />
	<path d="M822,539c-11.4,0-22.8,0.2-34.1,0c-12.3-0.2-20.6-8.5-18.6-19.2c0.8-4.4,3.4-8.8,6.2-12.5c30.2-40.5,60.7-80.8,91.1-121.2
		c5.5-7.3,10.6-15,16.6-21.9c18.5-21.8,43.2-20.9,60.4,1.9c28.2,37.5,56.3,75,84.4,112.6c8.3,11.1,16.9,22.1,24.9,33.4
		c7,9.9,2.7,22.2-8.8,25.9c-2.9,0.9-6.2,1.1-9.3,1.1c-21.2,0.1-42.3,0-63.5,0.1c-9.5,0-11.6,2.2-11.9,11.7
		c-3.1,93.3-32.5,177.1-90.8,250.4c-62.7,78.8-144.1,127.6-241.9,149.4c-39,8.7-78.7,10.6-118.6,7.2
		c-54.1-4.5-105.5-18.3-153.9-42.7c-32-16.1-61.4-36.2-88.5-59.7c-13.9-12-15.6-26.1-4.9-41.1c7-9.8,14.2-19.4,21.6-28.8
		c12.2-15.5,27.9-16.6,42.6-3.4c40,36,86,61.3,138.4,74c99,23.9,189.8,4.9,271.6-55.2c69.8-51.3,110.8-121,126.2-205.8
		c2.8-15.4,3.5-31.3,4.7-47c0.5-6.5-2-8.9-8.7-9C845.4,538.9,833.7,539,822,539C822,539,822,539,822,539z" />
	<path d="M460.4,461.3c3.7,0.3,6.5,0.8,9.2,0.8c40,0.1,79.9,0.1,119.9,0.1c1.7,0,3.5-0.1,5.2,0.1c6.1,0.8,8.6,3,8.8,9.1
		c0.4,8.8,0.4,17.7,0,26.5c-0.2,5.9-3.3,8.6-9.3,9.4c-2.3,0.3-4.7,0.4-7.1,0.4c-44.6,0-89.1-0.1-133.7-0.2c-6.9,0-10.2,2.7-10.7,9.3
		c-0.9,10.4-1.6,20.8-2.1,31.2c-0.4,8.3,2.4,11.1,10.9,11.2c9.3,0.1,18.6,0,28,0c32.5,0,65.1,0,97.6,0c6.1,0,12.3,0.1,18.4,0.5
		c5.5,0.4,7.9,2.7,8.1,8c0.3,9,0.3,18,0,27c-0.2,5.9-2.5,7.9-8.6,8.5c-2,0.2-4.1,0.2-6.1,0.2c-28.9,0-57.8,0-86.7,0
		c-14.8,0-29.7,0.2-44.5,0.4c-5.3,0.1-7.2,2.4-5.5,7.1c16.1,44.7,44.3,77.2,91.5,90.1c28.5,7.8,56,3.2,82.5-8.7
		c6.2-2.8,12.2-5.9,18.4-8.6c8.1-3.6,11.6-2,13.9,6.5c3.1,11.4,6,22.9,8.9,34.3c2,7.9,0.5,11.6-6.5,15.9
		c-16.2,9.8-33.6,16.8-52.2,20.4c-39.6,7.6-78.7,6.1-116-10.5c-46.6-20.7-76.9-56.7-94.1-104.1c-3.9-10.8-6.6-22-9.6-33.1
		c-2.1-7.8-4.6-9.6-12.8-9.3c-6,0.2-12,0-18-0.5c-6.2-0.5-9.1-3.1-9.3-9.2c-0.4-8.7-0.2-17.4,0.1-26c0.2-4.9,3.3-7.7,8.1-8.3
		c5-0.7,10-1,15-1.8c6.5-1,8.8-3.5,9.2-9.9c0.6-11,1.2-22.1,1.7-33.1c0.2-4.6-1.7-6.8-6.3-7c-5.7-0.3-11.4-0.4-17-0.7
		c-7.2-0.4-10.5-3.4-10.7-10.5c-0.3-8.4-0.2-16.7,0-25.1c0.2-6.1,3.4-9.2,9.6-9.4c6.5-0.2,13-0.2,19.4,0.1
		c10.2,0.6,14.4-1.9,17.6-11.8c5.8-17.9,13.3-35.2,23.8-50.8c28-41.5,65.5-69.6,115.4-79.4c22.4-4.4,44.9-4.1,67.4-1
		c19.5,2.6,38.4,7.2,56.2,15.9c10,4.9,11.4,8.5,8.3,19.3c-3.4,11.7-6.5,23.4-9.8,35c-3,10.5-6.3,12-16.1,7.3
		c-14.7-7-29.4-13.9-45.6-16.7c-43.7-7.6-80.7,4.8-109.4,38.8c-9,10.8-15.6,23.6-23.2,35.6C461.5,456.1,461.3,458.3,460.4,461.3z" />
</svg>
