<?xml version="1.0" encoding="utf-8"?>
<!-- Generator: Adobe Illustrator 23.0.6, SVG Export Plug-In . SVG Version: 6.00 Build 0) -->
<svg version="1.1" id="Layer_1" xmlns="http://www.w3.org/2000/svg" xmlns:xlink="http://www.w3.org/1999/xlink" x="0px" y="0px" viewBox="0 0 1080 1080" style="enable-background:new 0 0 1080 1080;" xml:space="preserve">
	<g fill="#163A5F">
		<path d="M520.8,1069.3c-0.6-0.3-1.2-0.8-1.9-0.8c-9.5-0.6-14.5-6.2-16.3-15c-2.6-12.4-5.2-24.8-7.3-37.3c-1-5.7-4.2-8.7-9.2-10.7
		c-13.8-5.5-27.4-11.2-41.2-16.6c-1.5-0.6-4.1,0-5.6,1c-8.9,6-17.6,12.4-26.4,18.4c-3.8,2.6-7.8,5-11.9,7.1
		c-6.1,3.2-12.7,3.3-17.6-1.4c-12.8-12.1-25.3-24.6-37.4-37.5c-5.1-5.5-3.9-12.5-0.2-18.5c5.8-9.4,11.3-19.2,18.4-27.6
		c7.1-8.4,7.6-15.4,2.3-25.1c-6-11.1-9.4-23.5-14.2-35.2c-0.7-1.7-2.8-3.5-4.6-3.9c-13.3-2.6-26.7-4.8-40.1-7.4
		c-3.3-0.6-6.5-1.8-9.7-3.1c-4.7-1.9-7.7-5.6-7.9-10.6c-0.6-16.8-1.2-33.6-0.9-50.4c0.2-10.3,4.8-15.1,15.1-17.4
		c12-2.6,24.2-4.6,36.4-6.6c6.8-1.1,10.6-3.8,12.9-11.1c3.9-12.5,9.6-24.6,15.2-36.6c1.9-4.2,1.6-6.9-1.1-10.5
		c-7.7-10.5-15.3-21.1-22.4-32.1c-7.3-11.3-7.1-14.9,1.9-24.7c10-10.9,20.5-21.5,31.2-31.8c8.8-8.4,12.9-8.8,23.4-2.4
		c11.6,7.1,22.7,14.9,33.9,22.7c3,2.1,5.2,2.4,8.6,0.9c13.6-6.3,27.4-12.3,41.2-18c5.1-2.1,7.7-5.2,8.6-10.5
		c1.9-11.8,3.8-23.7,6.4-35.3c3.1-13.9,8.2-17.9,22.4-17.9c14.5,0,29,0.3,43.4,0.9c8.9,0.4,14,5.9,15.6,14.3
		c2.1,10.5,4.1,21.1,5.5,31.7c1.3,9.9,5.6,16,15.6,19.3c11.5,3.8,22.2,9.7,33.5,14c2.6,1,6.8,0.6,9.3-0.9
		c8.1-4.9,15.7-10.6,23.6-15.9c4-2.7,8.1-5.2,12.4-7.5c6.3-3.4,13-3.3,18.1,1.5c13.1,12.4,25.8,25.2,38.2,38.3
		c5.2,5.5,4.2,12.4,0.2,18.4c-6.5,9.8-12.8,19.9-20.3,29c-5.9,7-6.2,12.5-1.8,20.6c6.1,11.4,10.4,23.9,15.1,36
		c1.3,3.3,2.9,4.7,6.3,5.3c13.4,2.3,26.8,4.6,40,7.5c12.2,2.7,15.9,6.8,16.3,19c0.5,14.1,0.4,28.3-0.1,42.4
		c-0.4,12.8-4.5,17.5-17.2,20.3c-13.4,2.9-27.1,5-40.6,7.6c-1.7,0.3-3.9,1.8-4.5,3.3c-5.4,13-9.9,26.4-15.9,39.1
		c-3.3,7.1-3,12,1.9,18.1c7.6,9.7,14.1,20.2,21.3,30.3c4.9,6.9,4.8,13.7-0.8,19.6c-12.2,12.8-24.7,25.3-37.4,37.6
		c-4.9,4.7-10.9,5.1-16.8,1.5c-7.6-4.7-15.1-9.5-22.6-14.4c-3.4-2.3-6.8-4.6-10-7.2c-6.1-5-11.5-5.8-19.2-1.6
		c-11.1,6-23.3,9.9-35.1,14.4c-3.2,1.2-4.8,2.7-5.4,6.3c-1.8,11.3-4.1,22.5-6,33.8c-1.9,11.6-5.6,21.5-19.3,23.2
		C550.9,1069.3,535.9,1069.3,520.8,1069.3z M538.3,919.8c46.4,4.8,105.1-35.5,106.5-100.9c1.2-56.2-44.3-103.8-100.6-105.1
		c-57.8-1.3-104.6,43.6-106.4,100.9C436,872.8,488.6,921.5,538.3,919.8z" />
		<path d="M829.1,533.4c-10.9,13.2-21.2,26.9-32.7,39.5c-15.4,16.7-32.5,31.7-51.7,44.8c-6-5.4-11.8-10.9-17.8-16.2
		c-7.7-6.8-16-12.7-26.2-15.1c-11.6-2.7-22.5,0-32.5,5.7c-8.8,5-17.1,11.1-25.8,16.4c-1.7,1.1-4.5,1.3-6.6,0.8
		c-14.5-3.5-20.8-13.1-21.6-27.8c-0.6-10.4-4.3-20.1-10.1-29.1c-1.6-2.4-1.7-6.7-0.8-9.6c5.9-21.1,12.1-42.2,18.5-63.2
		c6.7-21.7,13.8-43.2,20.7-64.8c0.6-1.8,1.3-3.6,2.3-6.3c5,2.6,9.8,4.8,14.3,7.5c26.7,15.8,54.5,29.1,83.6,39.8
		c12.2,4.5,24.6,8.8,37,12.7c26.2,8.2,40.1,27.2,47.3,52.5c0.7,2.4,1.4,4.8,2.1,7.1C829.1,529.8,829.1,531.6,829.1,533.4z" />
		<path d="M693.1,154.7c-1.7,14.8-3.3,30.7-5.3,46.4c-0.8,6.2-0.6,11.5,3.7,17c2.8,3.6,4.2,9.3,4.1,14c-0.3,23.3-6.6,45.1-17.6,65.6
		c-2.9,5.5-7.1,9.7-13.5,11.6c-4.7,1.4-6,5.6-7.4,9.8c-3.5,10.7-6.6,21.6-10.9,31.9c-25.9,62.2-91.9,88.4-153.7,61.3
		c-34.1-15-54-42.3-66.3-76.2c-1.6-4.4-2.9-8.8-4.1-13.3c-2.5-10-6.9-18.7-13.2-27.1c-11.4-15.1-16.5-33.2-20.2-51.5
		c-1.4-7.1-2-14.5-2-21.8c0.1-7.9,3-14.7,11.7-17.3c3.9-1.2,4.8-3.7,3.8-7.5c-13.8-55.7,4.8-100.8,45.3-138.6
		c20.8-19.4,44.2-35.7,72.7-40.1c45.7-6.9,87.2,2.3,120.1,37.7c4.5,4.8,9.5,9.7,15.2,12.6c20.2,10.3,30,27.5,33.6,48.8
		C691.3,129.7,691.8,141.7,693.1,154.7z" />
		<path d="M437.6,407.3c3.3,9.8,6.5,19,9.5,28.3c11.4,35.7,22.8,71.5,34.1,107.2c0.7,2.2,0.7,5.6-0.6,7.3
		c-7.1,9.7-10.2,20.8-12.4,32.3c-0.3,1.6-0.6,3.2-1,4.7c-3.1,14.6-9,20.5-23.7,23c-1.5,0.3-3.3-0.8-4.7-1.6
		c-8.8-5.4-17.3-11.5-26.4-16.4c-17.5-9.5-34.5-7.8-50.2,4.3c-6.8,5.2-13.3,10.9-19.3,17c-3.8,3.9-6.8,4.2-10.7,0.9
		c-12.6-10.6-25.9-20.4-37.5-31.9c-13.3-13.2-25.2-27.8-37.8-41.7c-3.3-3.7-3.9-7.7-2.9-12.4c3.1-14.1,7.5-27.4,16.9-38.9
		c8.7-10.7,19.7-17.3,32.6-21.5c34.4-11.1,68.2-23.7,100-41C414.8,420.8,425.6,414.2,437.6,407.3z" />
		<path d="M538.9,533.6c-10.9,4.2-16.9-3.7-22.4-13.7c-6.1-11.2-12.4-22.1-14.5-34.9c-2.3-14.2,3.9-25.1,17.5-29.9
		c15.3-5.4,30.7-4.7,45.7,0.9c12.4,4.6,17.4,15.7,14.4,31.6c-3.1,16.8-12.4,30.7-21.6,44.5c-0.7,1-2.7,1.5-4.2,1.5
		C549.6,533.8,545.3,533.6,538.9,533.6z" />
		<path d="M538.3,919.8c-49.7,1.8-102.3-47-100.5-105.1c1.8-57.3,48.6-102.2,106.4-100.9
		c56.3,1.3,101.8,48.9,100.6,105.1C643.4,884.3,584.8,924.6,538.3,919.8z" />
	</g>
</svg>
