<?xml version="1.0" encoding="utf-8"?>
<!-- Generator: Adobe Illustrator 23.0.6, SVG Export Plug-In . SVG Version: 6.00 Build 0) -->
<svg fill="#163A5F" version="1.1" id="Layer_1" xmlns="http://www.w3.org/2000/svg" xmlns:xlink="http://www.w3.org/1999/xlink" x="0px" y="0px" viewBox="0 0 1080 1080" style="enable-background:new 0 0 1080 1080;" xml:space="preserve">
	<path d="M566.8,429.5c11.7-36.9,23.5-73.9,35.6-112c6.6,3.5,12.2,6.9,18.1,9.7c15.3,7.1,30.2,15,46,20.7
		c27.5,9.8,41.2,29.5,43.6,57.5c1.9,22.4,2.3,44.8,3.3,68.2c-114.3,0-227.5,0-341.9,0c0.4-29.7-1.7-59.5,6.8-88.5
		c3.7-12.5,11-23.3,22.9-29c26.4-12.8,53.3-24.6,80.9-37.3c12,36.9,24,74,36,111.2c0.8,0,1.5,0,2.3,0c4.1-11.7,8.5-23.3,12.2-35.1
		c0.7-2.4-1.1-5.8-2.2-8.5c-3.1-7.4-7.5-14.4-9.4-22c-2.6-10.3,2.3-17.4,12.5-19.4c6-1.1,12.7-1,18.7,0.4
		c9.7,2.3,13.5,9.4,11.5,19.2c-0.5,2.7-0.9,6-2.5,7.9C544.4,392.5,558.1,410.6,566.8,429.5z" />
	<path d="M202.5,959.3c4-11.2,8.4-22.3,11.8-33.6c0.9-3.1-0.7-7.2-2.1-10.5c-2.7-6.4-6.9-12.4-8.9-19c-3.6-12.3,2.3-20.8,15-22.5
		c4.8-0.6,9.9-0.6,14.6,0.4c11,2.4,15.6,10.5,12.7,21.4c-1.2,4.4-2.5,9.2-5.2,12.5c-7.8,9.4-6.9,18.8-2.2,29.1
		c3.3,7.2,5.7,14.9,9.6,25.4c12.7-40,24.5-77.2,36.7-115.5c8.2,4.3,15.4,8.4,22.9,11.9c14.6,6.8,29.2,13.9,44.2,19.6
		c24.3,9.2,37.4,27.1,40,52.1c2.4,23.7,2.7,47.6,3.9,72.3c-114.6,0-227.8,0-343.9,0c2.7-28.9,4.2-57.6,8.4-85.8
		c2.5-16.8,14.5-28.5,30.2-35.5c24.3-10.9,48.5-21.8,74.1-33.3c11.8,36.5,23.8,73.9,35.9,111.3C201,959.4,201.7,959.4,202.5,959.3z" />
	<path d="M1029.5,1003.2c-113.2,0-225.9,0-339.7,0c0.6-29.9-1.9-59.4,6.6-88.1c4.3-14.5,13.4-25.6,27.1-32.1
		c25-11.7,50.4-22.8,76.9-34.8c11.8,36.5,23.7,73.6,35.7,110.7c0.9,0.1,1.7,0.2,2.6,0.4c4.1-12,8.5-24,12.2-36.2
		c0.6-2.1-1.3-5.1-2.4-7.6c-2.9-6.3-6.4-12.5-9-18.9c-2.9-7.2-2.1-14.3,4.6-18.9c9.5-6.5,19.9-6.2,30.1-1.6
		c7.7,3.5,9.2,10.6,7.4,17.8c-1.5,6-3.6,12.4-7.1,17.4c-5.1,7.2-5.5,13.4-1.9,21.3c3.9,8.5,6.5,17.7,12,27
		c11.8-37.2,23.7-74.3,35.9-112.8c5,2.8,9.3,5.5,13.9,7.6c16.2,7.6,32.1,16.2,48.8,22.3c27,9.9,42.4,28.1,44.5,56.7
		c1.7,22,2.1,44.2,3,66.3C1030.7,1000.9,1029.9,1002.1,1029.5,1003.2z" />
	<path d="M142.5,719.7c-9-51.8,19.6-97.9,66.8-108c29-6.2,54.3,0.7,74,24.1c1.3,1.6,2.8,3.4,4.6,4.1c18.7,6.8,23,22.6,23.9,39.6
		c0.6,10.8-0.9,21.7-1.6,32.5c-0.4,6.4-3.3,12.9,2.6,18.7c1.6,1.6,1.8,5.5,1.2,8c-3.5,16.2-2.1,34.8-20.6,44.3
		c-1.8,0.9-2,4.9-2.8,7.5c-8.2,29.5-23.9,51.7-56.3,57c-33.7,5.5-63.6-12.4-76.7-45.5c-4.6-11.5-7.7-23.2-14.8-34
		c-6-9.2-7.2-21.7-9.5-32.9C131.7,728.2,133.8,721.8,142.5,719.7z" />
	<path d="M778,716c-9.1-35.4,4.5-64,32.8-86.7c27.1-21.8,56.6-26.4,88.4-10.4c3.4,1.7,6.6,4,9.7,6.3c8.4,6.6,17.9,12.4,24.7,20.4
		c6,7.1,10.8,16.4,12.9,25.5c2.3,9.6,0.9,20.2,1,30.3c0,10.4-3.6,20.2,1.3,31.4c6,13.7-6.1,40.3-18.6,49.6c-2.3,1.7-3.1,5.9-4,9.1
		c-7,25.4-19.9,45.7-46.6,53.9c-40.7,12.4-79.3-11.9-90.4-56.2c-1.4-5.4-5.8-10-7.5-15.4c-4.6-14.1-9.4-28.3-12.3-42.9
		C768.5,727.3,774.2,722.2,778,716z" />
	<path d="M630.9,159.5c-0.7,6.6-1.6,13.2-2.2,19.9c-0.7,7.7-2.6,14.6,2,22.9c6.5,11.6-6.3,43.2-17.5,50.5c-2.6,1.7-4.1,5.9-5,9.3
		c-7.3,25.7-20.4,46.2-47.7,54.1c-40.5,11.8-78.7-13-89.7-57.6c-1.2-4.8-4.1-9.2-6.8-13.5c-8.6-13.7-13.3-28.5-12.7-44.8
		c0.1-1.7,0.4-4.5,1.4-4.9c11.2-4.5,5.9-12.9,5.2-20.3c-3.1-36.9,15.2-62.4,44.2-81.5c25.3-16.6,51.9-17.7,78.9-3.9
		c3.7,1.9,7.2,4.4,10.5,7c8.2,6.4,16.2,12.9,24.2,19.4C625.4,123.6,630.5,138.7,630.9,159.5z" />
	<path d="M558.7,553c-0.3,9.1-8.2,16.5-17.3,16.2c-9.3-0.3-16.3-7.8-16.1-17.3c0.2-9.5,7.5-16.3,17.1-16.1
		C551.8,536.1,559,543.7,558.7,553z" />
	<path d="M542.4,586.3c9.5,0.2,16.6,7.5,16.3,16.9c-0.3,9.1-8.2,16.7-17.2,16.5c-9.2-0.2-16.4-7.9-16.2-17.3
		C525.5,593,532.7,586.1,542.4,586.3z" />
	<path d="M474.3,758.1c-0.1,9.1-7.7,16.3-17.1,16.2c-9.5-0.1-16.4-7.2-16.3-16.8c0.1-9.3,7.6-16.7,16.8-16.5
		C466.7,741.2,474.4,749.2,474.3,758.1z" />
	<path d="M627,774.4c-9.5,0.2-17-6.7-17.2-16c-0.2-9,7.3-17,16.2-17.3c9-0.3,16.8,7.3,17.1,16.4C643.4,767,636.6,774.2,627,774.4z" />
	<path d="M432.1,785.3c0,9.2-7.5,16.4-16.9,16.4c-9.6,0-16.5-7-16.5-16.6c0-9.2,7.6-16.8,16.7-16.8
		C424.1,768.3,432.1,776.4,432.1,785.3z" />
	<path d="M668.3,768.3c8.9-0.3,16.8,7.3,17,16.4c0.3,9.5-6.6,16.7-16.1,16.9c-9.5,0.2-17-6.7-17.2-16
		C651.9,776.6,659.4,768.6,668.3,768.3z" />
	<path d="M541.8,686.4c9-0.2,16.8,7.4,17,16.6c0.2,9.4-6.9,16.7-16.4,16.9c-9.6,0.2-16.9-6.8-17-16.2
		C525.3,694.4,532.7,686.6,541.8,686.4z" />
	<path d="M500.7,713.9c9.1,0.6,16.3,8.6,15.9,17.6c-0.5,9.2-8.1,16-17.6,15.6c-9.4-0.4-16.1-7.9-15.7-17.4
		C483.6,720.5,491.6,713.3,500.7,713.9z" />
	<path d="M541.9,669.9c-9.1-0.1-16.6-7.9-16.5-17c0.1-9.3,7.5-16.5,16.9-16.4c9.3,0.1,16.6,7.5,16.5,16.8
		C558.7,662.4,550.9,670.1,541.9,669.9z" />
	<path d="M600.9,730.4c0.2,9.3-6.9,16.6-16.4,16.8c-9.5,0.2-16.8-6.8-16.9-16.1c-0.1-9.2,7.2-16.9,16.3-17.1
		C592.8,713.8,600.7,721.4,600.9,730.4z" />
</svg>
