<?xml version="1.0" encoding="utf-8"?>
<!-- Generator: Adobe Illustrator 23.0.6, SVG Export Plug-In . SVG Version: 6.00 Build 0) -->
<svg fill="#163A5F" version="1.1" id="Layer_1" xmlns="http://www.w3.org/2000/svg" xmlns:xlink="http://www.w3.org/1999/xlink" x="0px" y="0px" viewBox="0 0 1080 1080" style="enable-background:new 0 0 1080 1080;" xml:space="preserve">
	<path d="M207.7,1031c-1,0-1.7-0.8-1.7-1.7c0-49.6-0.1-99.2-0.1-148.7c0-0.4,0-0.7,0.1-1.1c0.1-0.9,0.9-1.5,1.7-1.5h50.8
	c1,0,1.7,0.8,1.7,1.7v90.2c0,1,0.8,1.7,1.7,1.7h489.1c1,0,1.7-0.8,1.7-1.7v-165c0-1,0.8-1.7,1.7-1.7h168.3c1,0,1.7-0.8,1.7-1.7
	V112.2c0-1-0.8-1.7-1.7-1.7H265c-1,0-1.7,0.8-1.7,1.7v88.6c0,1-0.8,1.7-1.7,1.7h-53.9c-0.9,0-1.7-0.7-1.7-1.6c0,0,0,0,0,0
	c0-49.4,0-98.8,0.1-148.2c0-1,0.8-1.7,1.7-1.7h766.5c1,0,1.7,0.8,1.7,1.7v749.5c0,0.5-0.2,1-0.6,1.3c-0.4,0.4-0.9,0.7-1.2,1.1
	c-43.8,44.8-87.6,89.6-131.4,134.4c-29.8,30.5-59.5,60.9-89.2,91.4c-0.3,0.3-0.8,0.5-1.2,0.5H207.7z" />
	<path d="M106,318c0.3-0.8,0.7-1.5,0.9-2.3c3.4-15.8,15.2-25.8,31.4-26.1c12.7-0.2,25.3,0,38,0c25.5,0,51,0,76.5,0
	c17.1,0,27.7,6.9,33.3,23.2c3.9,11.5,6.9,23.3,9.8,35.1c1.1,4.5,3,5.5,7.4,5.5c121.1-0.1,242.3-0.1,363.4-0.1
	c17.1,0,30.4,9.2,33.4,24.2c1.1,5.5,0.9,11.8-0.6,17.2c-20.2,72.6-40.7,145.1-61.2,217.6c-6.4,22.5-20.4,28.8-37.7,28.8
	c-89.8-0.3-179.6-0.2-269.5-0.2c-19.8,0-31.9-9.2-36.6-28.6c-20.6-84.2-41.2-168.4-61.5-252.6c-1.2-4.9-2.8-6.6-8.1-6.6
	c-26.2,0.3-52.3-0.4-78.5,0.3C126.8,354,111.6,348,106,325C106,322.7,106,320.3,106,318z M624.9,417.4c-103.3,0-206,0-309.5,0
	c11.9,53.4,23.6,106.4,35.4,159.4c77.7,0,154.8,0,232.2,0C597,523.6,611,470.6,624.9,417.4z" />
	<path d="M361,674c35.3,0,63.9,28.6,63.9,63.9c0,35.1-28.8,63.9-64,63.9c-35.1,0-63.9-28.9-63.9-64C297.1,702.6,325.8,674,361,674z" />
	<path d="M637.5,737.7c0.1,35.1-28.6,64-63.7,64.1c-35.1,0.1-63.9-28.6-63.9-63.8c0-35.2,28.2-63.8,63.2-63.9
	C608.6,673.8,637.3,702.1,637.5,737.7z" />
	<path d="M863.9,345.4c-37.2,0-73.9,0-110.8,0c0-26.6,0-52.8,0-79.5c36.9,0,73.8,0,110.8,0C863.9,292.4,863.9,318.6,863.9,345.4z" />
	<path d="M753.3,424.1c36.8,0,73.4,0,110.4,0c0,26.4,0,52.8,0,79.5c-36.6,0-73.3,0-110.4,0C753.3,477.3,753.3,451,753.3,424.1z" />
	<path d="M863.9,582.4c0,26.6,0,52.9,0,79.4c-36.9,0-73.6,0-110.7,0c0-26.4,0-52.7,0-79.4C790,582.4,826.7,582.4,863.9,582.4z" />
</svg>
