<svg width="63" height="50" viewBox="0 0 63 50" fill="none" xmlns="http://www.w3.org/2000/svg">
	<g clip-path="url(#clip0)">
		<path d="M31.25 14.0625C26.0723 14.0625 21.875 18.959 21.875 25C21.875 31.04 26.0723 35.9375 31.25 35.9375C36.4258 35.9375 40.625 31.042 40.625 25C40.625 18.959 36.4277 14.0625 31.25 14.0625ZM35.1562 30.4688C35.1562 30.9004 34.8066 31.25 34.375 31.25H28.125C27.6934 31.25 27.3438 30.9004 27.3438 30.4688V28.9062C27.3438 28.4746 27.6934 28.125 28.125 28.125H29.6875V22.7109L29.6416 22.7412C29.5563 22.7982 29.4606 22.8377 29.3599 22.8576C29.2593 22.8776 29.1557 22.8775 29.0552 22.8573C28.9546 22.8372 28.8589 22.7974 28.7737 22.7403C28.6885 22.6832 28.6154 22.6098 28.5586 22.5244L27.6914 21.2246C27.6345 21.1393 27.5949 21.0436 27.575 20.9429C27.555 20.8423 27.5552 20.7387 27.5753 20.6382C27.5954 20.5376 27.6352 20.4419 27.6923 20.3567C27.7494 20.2715 27.8228 20.1984 27.9082 20.1416L29.4053 19.1436C29.7902 18.8869 30.2425 18.75 30.7051 18.75H32.0312C32.4629 18.75 32.8125 19.0996 32.8125 19.5312V28.125H34.375C34.8066 28.125 35.1562 28.4746 35.1562 28.9062V30.4688ZM59.375 6.25H3.125C1.39941 6.25 0 7.64941 0 9.375V40.625C0 42.3506 1.39941 43.75 3.125 43.75H59.375C61.1006 43.75 62.5 42.3506 62.5 40.625V9.375C62.5 7.64941 61.1006 6.25 59.375 6.25ZM57.8125 32.8125C54.3604 32.8125 51.5625 35.6104 51.5625 39.0625H10.9375C10.9375 35.6104 8.13965 32.8125 4.6875 32.8125V17.1875C8.13965 17.1875 10.9375 14.3896 10.9375 10.9375H51.5625C51.5625 14.3896 54.3604 17.1875 57.8125 17.1875V32.8125Z" fill="#163A5F" />
	</g>
	<defs>
		<clipPath id="clip0">
			<rect width="62.5" height="50" fill="#163A5F" />
		</clipPath>
	</defs>
</svg>
