<svg height="512" viewBox="0 0 64 64" width="512" xmlns="http://www.w3.org/2000/svg">
	<g data-name="Data analysis">
		<g fill="#163A5F">
			<path d="M54 27v26h2v4a4 4 0 01-4 4H12a4 4 0 01-4-4v-4h2V25a2.006 2.006 0 012-2h12v4H14v26h11v2a2.006 2.006 0 002 2h10a2.006 2.006 0 002-2v-2h11V27H40v-4h3a5 5 0 015-5h2.27a2 2 0 003.46 0H56a5 5 0 015 5v4zM51 3a4 4 0 00-4 4v1l7-2 3 2V7a4 4 0 00-4-4z" />
			<path d="M42 31h4v18h-4zM42 11L32 3l-10 8h18zM34 33h4v16h-4zM34 15h4v8h-4zM26 37h4v12h-4zM26 15h4v8h-4zM18 41h4v8h-4zM3 11a8 8 0 007.95 8H11a8 8 0 00.05-16H11a8 8 0 00-8 8z" />
		</g>
		<path d="M22 40h-4a1 1 0 00-1 1v8a1 1 0 001 1h4a1 1 0 001-1v-8a1 1 0 00-1-1zm-1 8h-2v-6h2zM30 36h-4a1 1 0 00-1 1v12a1 1 0 001 1h4a1 1 0 001-1V37a1 1 0 00-1-1zm-1 12h-2V38h2zM38 32h-4a1 1 0 00-1 1v16a1 1 0 001 1h4a1 1 0 001-1V33a1 1 0 00-1-1zm-1 16h-2V34h2zM42 50h4a1 1 0 001-1V31a1 1 0 00-1-1h-4a1 1 0 00-1 1v18a1 1 0 001 1zm1-18h2v16h-2z" fill="#163A5F" />
		<path d="M11 2a9 9 0 109 9 9.014 9.014 0 00-9-9zm0 16a7 7 0 117-7 7.008 7.008 0 01-7 7z" fill="#57a4ff" />
		<path d="M12 17v-1.184A2.993 2.993 0 0011 10a1 1 0 111-1h2a3 3 0 00-2-2.816V5h-2v1.184A2.993 2.993 0 0011 12a1 1 0 11-1 1H8a3 3 0 002 2.816V17zM56 17h-1v-1.42A5.014 5.014 0 0058 11V7a5 5 0 00-5-5h-2a5 5 0 00-5 5v4a5.014 5.014 0 003 4.58V17h-1a6.007 6.007 0 00-5.91 5H39v-6h1a1 1 0 001-1v-3h1a1 1 0 00.94-.67.983.983 0 00-.32-1.11l-10-8a.992.992 0 00-1.24 0l-10 8a.983.983 0 00-.32 1.11A1 1 0 0022 12h1v3a1 1 0 001 1h1v6H12a3.009 3.009 0 00-3 3v27H8a1 1 0 00-1 1v4a5 5 0 005 5h40a5 5 0 005-5v-4a1 1 0 00-1-1h-1V28h6a1 1 0 001-1v-4a6 6 0 00-6-6zM51 4h2a2.986 2.986 0 012.82 2.01l-1.27-.84a.99.99 0 00-.82-.13l-5.7 1.62A3 3 0 0151 4zm-3 7V8.75l5.83-1.66L56 8.54V11a3.009 3.009 0 01-3 3h-2a3.009 3.009 0 01-3-3zm5 5v1a1 1 0 01-2 0v-1zm-5 3h1.78a3 3 0 001.22.82V22h-6.86A4 4 0 0148 19zm-7 5h11a1 1 0 011 1v27h-2V27a1 1 0 00-1-1h-9zm-2-10H25v-2h14zm-2 2v6h-2v-6zm-4 0v6h-2v-6zm-4 0v6h-2v-6zm-4.15-6L32 4.28 39.15 10zM25 24h14v2H25zm24 4v24H15V28zM38 54v1a1 1 0 01-1 1H27a1 1 0 01-1-1v-1zM11 25a1 1 0 011-1h11v2h-9a1 1 0 00-1 1v25h-2zm44 32a3.009 3.009 0 01-3 3H12a3.009 3.009 0 01-3-3v-3h15v1a3.009 3.009 0 003 3h10a3.009 3.009 0 003-3v-1h15zm5-31h-5v-1a3.01 3.01 0 00-2-2.82v-2.36a3 3 0 001.22-.82H56a4 4 0 014 4z" fill="#163A5F" />
	</g>
</svg>
