<?xml version="1.0" encoding="utf-8"?>
<!-- Generator: Adobe Illustrator 23.0.6, SVG Export Plug-In . SVG Version: 6.00 Build 0) -->
<svg version="1.1" id="Layer_1" xmlns="http://www.w3.org/2000/svg" xmlns:xlink="http://www.w3.org/1999/xlink" x="0px" y="0px" viewBox="0 0 1080 1080" style="enable-background:new 0 0 1080 1080;" xml:space="preserve">
	<style type="text/css">
		.st0{fill:#163A5F;}
		.st1{fill:#163A5F;}
	</style>
	<image style="display:none;overflow:visible;" width="512" height="512" xlink:href="23A05430.png" transform="matrix(2.1094 0 0 2.1094 0 0)">
	</image>
	<path class="st0" d="M914.4,202.9c-0.1-45-36.6-81.3-81.6-81.2l-79.9,0.2V181l77.3-0.2c13.9,0,25.1,11.2,25.2,25.1l1.5,756.1
	c0,13.9-11.2,25.1-25.1,25.2l-581.6,1.2c-13.9,0-25.1-11.2-25.2-25.1l-1.5-756.1c0-13.9,11.2-25.1,25.1-25.2l78.1-0.2v-59.2
	l-81.2,0.2c-45,0.1-81.3,36.6-81.2,81.6l1.5,761c0.1,45,36.6,81.3,81.6,81.2l587.5-1.2c45-0.1,81.3-36.6,81.2-81.6L914.4,202.9z" />
	<path class="st0" d="M701.2,96.4h-40.5l-34.1-56.8c-2.1-3.5-5.9-5.7-10.1-5.7H459.9c-4.1,0-7.9,2.2-10.1,5.7l-34.3,56.9h-36.7
	c-13.5,0-24.5,11-24.5,24.5v58.8c0,13.5,11,24.5,24.5,24.5h322.4c13.5,0,24.5-11,24.5-24.5V121C725.7,107.4,714.7,96.4,701.2,96.4z" />
	<path class="st0" d="M711,801.5H368.8c-13.9,0-25.3-11.3-25.3-25.3v0c0-13.9,11.3-25.3,25.3-25.3H711c13.9,0,25.3,11.3,25.3,25.3v0
	C736.3,790.2,724.9,801.5,711,801.5z" />
	<path class="st0" d="M800.4,912.8H279c-13.9,0-25.3-11.3-25.3-25.3v0c0-13.9,11.3-25.3,25.3-25.3h521.4c13.9,0,25.3,11.3,25.3,25.3
	v0C825.6,901.5,814.3,912.8,800.4,912.8z" />
	<path class="st1" d="M541,597.9L541,597.9c-9.8,0-17.8,8-17.8,17.8v43.5c0,9.8,8,17.8,17.8,17.8h0c9.8,0,17.8-8,17.8-17.8v-43.5
	C558.8,605.8,550.8,597.9,541,597.9z" />
	<path class="st1" d="M541,275.2L541,275.2c-9.8,0-17.8,8-17.8,17.8v40.3c0,9.8,8,17.8,17.8,17.8h0c9.8,0,17.8-8,17.8-17.8V293
	C558.8,283.2,550.8,275.2,541,275.2z" />
	<g>
		<g>
			<path class="st1" d="M668.1,537.6c0,19.1-4.9,36.2-14.7,51.4c-9.8,15.2-24.2,27.1-43.1,35.7s-41.3,12.9-67.3,12.9
			c-31.1,0-56.7-5.9-77-17.6c-14.3-8.5-26-19.7-34.9-33.9c-9-14.1-13.4-27.8-13.4-41.2c0-7.7,2.7-14.4,8.1-19.9
			c5.4-5.5,12.2-8.3,20.5-8.3c6.7,0,12.4,2.1,17.1,6.4c4.7,4.3,8.6,10.7,11.9,19.1c4,10,8.3,18.4,13,25.2
			c4.7,6.7,11.2,12.3,19.7,16.7c8.5,4.4,19.6,6.6,33.3,6.6c18.9,0,34.3-4.4,46.1-13.2c11.8-8.8,17.7-19.8,17.7-33
			c0-10.5-3.2-19-9.6-25.5c-6.4-6.5-14.6-11.5-24.7-14.9c-10.1-3.4-23.6-7.1-40.5-11c-22.6-5.3-41.6-11.5-56.9-18.6
			c-15.3-7.1-27.4-16.8-36.3-29c-9-12.3-13.4-27.5-13.4-45.7c0-17.3,4.7-32.7,14.2-46.2c9.5-13.5,23.1-23.8,41.1-31.1
			c17.9-7.2,39-10.9,63.2-10.9c19.3,0,36.1,2.4,50.2,7.2c14.1,4.8,25.8,11.2,35.1,19.1c9.3,8,16.1,16.3,20.4,25
			c4.3,8.7,6.4,17.3,6.4,25.6c0,7.6-2.7,14.4-8.1,20.5c-5.4,6.1-12.1,9.1-20.1,9.1c-7.3,0-12.9-1.8-16.7-5.5s-7.9-9.6-12.4-17.9
			c-5.7-11.9-12.6-21.2-20.6-27.8c-8-6.7-20.9-10-38.7-10c-16.5,0-29.8,3.6-39.9,10.9c-10.1,7.2-15.2,15.9-15.2,26.1
			c0,6.3,1.7,11.8,5.2,16.3c3.4,4.6,8.2,8.5,14.2,11.8c6,3.3,12.1,5.9,18.3,7.7c6.2,1.9,16.3,4.6,30.5,8.2
			c17.8,4.2,33.9,8.7,48.3,13.8c14.4,5,26.7,11.1,36.8,18.3c10.1,7.2,18,16.2,23.6,27.2C665.2,508.2,668.1,521.7,668.1,537.6z" />
		</g>
	</g>
</svg>
