<svg width="50" height="50" viewBox="0 0 50 50" fill="none" xmlns="http://www.w3.org/2000/svg">
	<path d="M45.8312 16.6666C45.8314 16.2885 45.7284 15.9176 45.5333 15.5937L39.8895 6.18746C39.5177 5.57255 38.994 5.06365 38.3686 4.70973C37.7432 4.35582 37.0373 4.16878 36.3187 4.16663H13.6771C12.2229 4.16663 10.8541 4.94163 10.1062 6.18954L4.46247 15.5937C4.26736 15.9176 4.16436 16.2885 4.16455 16.6666C4.16455 18.7604 4.96872 20.6541 6.24788 22.1208V41.6666C6.24788 42.2192 6.46738 42.7491 6.85808 43.1398C7.24878 43.5305 7.77868 43.75 8.33122 43.75H24.9979C25.5504 43.75 26.0803 43.5305 26.471 43.1398C26.8617 42.7491 27.0812 42.2192 27.0812 41.6666V31.25H35.4146V41.6666C35.4146 42.2192 35.634 42.7491 36.0247 43.1398C36.4154 43.5305 36.9453 43.75 37.4979 43.75H41.6645C42.2171 43.75 42.747 43.5305 43.1377 43.1398C43.5284 42.7491 43.7479 42.2192 43.7479 41.6666V22.1208C45.027 20.6541 45.8312 18.7604 45.8312 16.6666V16.6666ZM41.6312 17.1895C41.503 18.1956 41.0127 19.1205 40.2519 19.7912C39.4911 20.4618 38.5121 20.8323 37.4979 20.8333C35.2 20.8333 33.3312 18.9645 33.3312 16.6666C33.3312 16.525 33.2791 16.4 33.25 16.2666L33.2916 16.2583L31.7062 8.33329H36.3187L41.6312 17.1895V17.1895ZM20.8458 16.802L22.5375 8.33329H27.4562L29.15 16.802C29.077 19.0375 27.2479 20.8333 24.9979 20.8333C22.7479 20.8333 20.9187 19.0375 20.8458 16.802V16.802ZM13.6771 8.33329H18.2896L16.7062 16.2583L16.7479 16.2666C16.7166 16.4 16.6646 16.525 16.6646 16.6666C16.6646 18.9645 14.7958 20.8333 12.4979 20.8333C11.4837 20.8323 10.5046 20.4618 9.74384 19.7912C8.98306 19.1205 8.49272 18.1956 8.36455 17.1895L13.6771 8.33329ZM20.8312 33.3333H12.4979V27.0833H20.8312V33.3333Z" fill="#163A5F" />
</svg>
